<?xml version="1.0" encoding="utf-8"?>
<!-- Generator: Adobe Illustrator 19.2.1, SVG Export Plug-In . SVG Version: 6.00 Build 0)  -->
<svg version="1.1" id="Layer_1" xmlns="http://www.w3.org/2000/svg" xmlns:xlink="http://www.w3.org/1999/xlink" x="0px" y="0px"
	 viewBox="0 0 1039.4 1272.8" style="enable-background:new 0 0 1039.4 1272.8;" xml:space="preserve">
<style type="text/css">
	.st0{fill:#010001;}
	.st1{fill:#AC7254;}
	.st2{fill:#46AAE5;}
	.st3{fill:#2F75A9;}
	.st4{fill:#664838;}
	.st5{fill:#FFFFFF;}
	.st6{fill:#2F75A8;}
	.st7{fill:#222220;}
	.st8{fill:#12BCA6;}
	.st9{fill:#AB7153;}
	.st10{fill:#46A9E4;}
	.st11{fill:#21211F;}
	.st12{fill:#654738;}
	.st13{fill:#FCFCFC;}
	.st14{fill:#12B7A1;}
	.st15{fill:#12B8A3;}
	.st16{fill:#02F8D9;}
	.st17{fill:#664837;}
	.st18{fill:#644737;}
	.st19{fill:#12B9A3;}
	.st20{fill:#F8F8F8;}
	.st21{fill:#E70228;}
	.st22{fill:#674938;}
	.st23{fill:#2F75A7;}
	.st24{fill:#01D9BD;}
	.st25{fill:#624536;}
	.st26{fill:#2F73A4;}
	.st27{fill:#02E5C8;}
	.st28{fill:#0F9D8A;}
	.st29{fill:#0C7065;}
	.st30{fill:#170F0C;}
	.st31{fill:#150D0B;}
	.st32{fill:#201510;}
	.st33{fill:#241611;}
	.st34{fill:#040303;}
	.st35{fill:#030202;}
	.st36{fill:#050303;}
	.st37{fill:#130D0B;}
	.st38{fill:#070505;}
	.st39{fill:#120C0A;}
	.st40{fill:#030406;}
	.st41{fill:#050504;}
	.st42{fill:#080706;}
	.st43{fill:#070403;}
	.st44{fill:#070504;}
	.st45{fill:#060403;}
	.st46{fill:#212220;}
	.st47{fill:#FEFEFE;}
</style>
<g>
	<path class="st0" d="M191.1,320.8c-8.4,1.6-16,0.3-23.6,0.3c-25.5,0-51.1-0.6-76.5,2.5c-11.6,1.4-23.4,0.4-35.1,0.8
		c-6.6,0.2-13.8-2.9-19-8.1c-5.4-5.3-4.9-14.5,1-19.4c9-7.4,18.9-12.4,30.7-14.3c22.1-3.7,44.5-5.2,66.4-9.8
		c5.1-1.1,10.4-0.7,15.6-0.4c11.5,0.5,22.8-2.4,34.3-1.1c2.6,0.3,4-1.4,4.9-3.2c5.8-12,15.2-21.9,21.3-33.5
		c15.3-29.2,25.6-60.4,31-92.9c3.4-20.6,11.6-38.8,22.4-56.1c3.7-6,7.3-12,10.1-18.5c4.9-11.3,13.1-19.3,24.7-23.5
		c6.6-2.4,12.8-5.7,18.9-9.2c11.3-6.5,23.4-8.4,36.1-4.8c11.3,3.1,22.7,5.9,33.9,9c6.3,1.7,12.2,4.6,17.2,8.9
		c7.4,6.3,15.8,11,23.7,16.5c5.5,3.8,11.8,5.5,18,7.2c6.8,1.9,13.7,3.4,20.4,5.2c3.6,1,6.6,0.7,9.4-1.9c1.7-1.6,3.8-2.8,5.5-4.3
		c24.9-21.9,54.8-34.7,84.9-47.2c10-4.2,20.3-4.3,30.6-0.8c2,0.7,4,1.4,5.7,2.5c15.5,10.5,28.9,23.1,36.3,40.8
		c10,24,19.6,48.3,34.9,69.6c7.6,10.6,13.8,22,21.4,32.6c8.8,12.2,14.8,25.8,15.3,41.1c0.1,5.2,1.6,10.1,4.1,13.9
		c5.4,8.2,6.2,17.5,7.9,26.5c0.8,4,0.5,8.3,0.6,12.5c0.1,5.9,0,6.1,5.8,6.7c15.8,1.8,31.6,3.3,47.4,5.1c20.7,2.4,41.3,5.4,61,12.7
		c10.1,3.7,19.7,8.5,26.5,17.3c3.9,5.1,6.2,10.7,6,17.3c-0.1,4.3-1.6,7.5-5.3,9.7c-6.3,3.7-12.5,7.4-18.8,11.1
		c-1.1,0.6-2.4,1-3.7,1.1c-20.4,0.8-40.1,6.4-60,9.8c-12.3,2.1-24.5,4.9-36.8,7.1c-3.8,0.7-5,2-3.8,5.7c0.6,2,1,4,1.5,6.1
		c2.7,10,2.7,9.7,13.2,10.6c11.6,1.1,23.1,2.9,34.7,3.7c4.1,0.3,7.8,2.8,11.3,5.2c5.2,3.5,3,9,3,13.7c0,4.2-3.2,6.3-7,7.2
		c-1.8,0.4-3.6,0.6-5.3,1.3c-1.5,0.6-2.3,1.7-2.3,3.6c0.3,17.7-2,35-7.3,51.9c-1.8,5.9-1.6,5.8,4.2,6.6c17.5,2.6,35,5.1,52.5,7.9
		c6.7,1.1,13.4,1.4,20.2,1.7c9.6,0.4,19.2,1.5,28.3,5.1c7.3,2.8,7.7,4.7,2.9,10.5c-3.5,4.2-6.6,8.7-9.3,13.5
		c-6.3,11.7-15.6,21.5-22.5,32.9c-11.6,19.1-22.4,38.8-36,56.6c-3.7,4.8-4.9,10.8-7.6,17c4.2,0.7,8,0.2,11.7-0.2
		c23.6-2.6,47.1-6,70.7-7.8c16.1-1.2,31.9-4.8,48.2-4.4c17.2,0.4,34.3,1.7,51.3,3.9c9.1,1.2,17.8,3.4,26.2,6.8
		c4.6,1.8,5,3.8,1.6,7.4c-9.9,10.4-16.5,23.2-25.6,35.4c5.6,2.3,10.3,4.4,15,6.2c15.5,6,21.9,17.9,23.1,33.8
		c0.9,13.5-2.4,25.1-12,35c-3.6,3.7-6.2,8.4-9.3,12.5c-7.6,10.4-16.3,19.3-28.7,24.4c-8.6,3.5-16.1,9.6-25.5,11.5
		c-2.4,0.5-2.9,2.1-3.1,3.8c-2.2,13.8-8,26.9-7.2,41.4c0.4,8-1.8,16-3.3,23.9c-1.9,10.2-4.4,20.3-2.8,30.8c0.8,4.9-0.4,10-1.8,14.6
		c-2.4,7.7-3.3,15.8-5.5,23.6c-2.5,8.8-3.6,17.8-3.7,27c-0.1,6-0.7,12-1.8,17.9c-3.2,17-3.9,34.1-5.2,51.3
		c-0.8,10.3-0.8,20.7-3.5,30.8c4,1.3,7.4,0.7,10.7,0.7c3.2,0,6,1,9,1.9c17.1,5.1,24,19,29.6,33.8c4.2,11,6.7,22.7,5,34.4
		c-1.9,13.6-5.8,26.6-17.8,35.8c-4.8,3.7-9.4,7.4-15,9.4c-3.5,1.3-4.2,4.4-5.6,7c-7.4,13.2-15,26.1-26.4,36.3
		c-4.3,3.8-8.6,7.5-13.4,10.7c-17.1,16.8-46.8,32.2-89.4,30.3c-16.8,0.1-33.8-0.1-50.5-2.2c-18.7-2.4-37.2-6.6-55.2-12.8
		c-2.4-0.8-55.3-24.5-70-31.1c-1.5,2.2-2.5,4.5-2.9,7.2c-1.2,8.4-5.8,14.9-11,21.1c-6.5,7.8-14.5,13.7-22.9,19.6
		c-16.9,11.8-36.1,14.8-55.7,17.8c-13.7,2.1-27.4,1.5-41.1,2.3c-9.7,0.6-19.2,0.6-28.7-0.9c-20.7-3.4-39.2-11.8-55-25.7
		c-9.3-8.3-19.4-15.7-26.8-26c-2-2.7-4.9-4.7-8.6-4.5c-15.2,0.8-30.1-2-44.9-4.9c-16.4-3.2-33.2-2.9-49.6-6.4
		c-6.6-1.4-11,0-15.7,4.8c-8.6,8.7-19.1,15.1-30.3,20.3c-8,3.7-15.3,8.7-23.5,12.2c-12.5,5.4-25.5,8.7-38.9,10.4
		c-9.5,1.2-19.1,2.6-28.3,4.6c-20.5,4.5-40.7,3.3-61.1,0.1c-12.2-1.9-24-5.3-34.7-10.9c-11.7-6.1-23.8-11.8-32.9-22
		c-1.2-1.4-2.8-2.5-3.6-4.1c-7.3-14.3-16.4-27.9-19.6-44c-2.6-12.8-0.2-25.3,4.6-37.3c3.1-7.8,7-15.1,14.1-20.1
		c3.7-2.7,7.5-4.3,12.2-4.2c7.3,0.2,14.5-0.3,21.1,3.8c9.8,6.1,13.7,15.2,11.2,26.4c-1.1,4.9-3.6,9.2-5.5,13.7
		c4.8,5.1,11.4,4.9,17.3,6.3c5.8,1.4,12,0.5,17.8,1.5c5.2,0.9,10.3,1.3,15.4,0.8c8.3-0.8,16.5-1.9,24.7-2.9c2-0.2,3.9-0.7,5.8-2.4
		c-12.5-6.3-11.1-17.5-9.7-28.4c0.6-4.4,1.5-8.8,3.1-12.9c5.1-13.7,5.2-28.1,5.9-42.4c1.2-25,3.4-49.8,7.4-74.5
		c8-48.5,12-97.2,10.6-146.3c-0.1-2.9,0.1-5.8-1.3-8.4c-5.9-10.5-5.2-21.8-3.1-32.7c1.8-9.4,1.3-18.5,0-27.8
		c-2.6-18.3-4.2-36.7-7.7-54.8c-2-10.4-1.6-20.6-2.5-30.9c-0.6-6.4-2.5-12.8-3.4-19.2c-1.4-9.3-0.7-18.7-0.3-28.1
		c0.7-18,0.9-36,0.3-53.9c-0.6-14.9-1.2-30.1-5.7-44.7c-1.4-4.6-1.2-9.8-1.5-14.7c-1.6-23.5-6.1-46.4-11.3-69.3
		c-2.2-9.7-5.7-18.9-9.7-28c-4.6-10.2-3.7-14.3,5.8-20.3c12.5-7.9,25.1-16,40.8-15.5c4,0.1,5.4-1.7,5.7-5.5
		c1.1-15.5,5.3-30.2,10.8-44.6c0.7-1.9,1.2-4,1.4-6.1c0.5-5.9,3-11,6.6-15.6C185.2,331.8,188.7,327.3,191.1,320.8z"/>
	<path class="st1" d="M408.3,833.4c0.5,0,0.9,0,1.4,0c8.9,1.6,18,3,25.1,9.5c0.4,1.8,0.7,3.6,1.2,5.3c2.2,7.2-0.3,10.5-7.7,10
		c-7-0.5-14-0.9-21-1.8c-7.3-1-14.5-1.1-21.8-1.3c-40.5-1.3-80.4-5.9-119.2-18.4c-14.4-4.7-29.2-7.8-44-10.8
		c-15.1-3.1-28.9-8.5-40.8-18.5c-3.6-3-7.4-5.9-11.7-7.7c-4.7-1.9-6.7-5.4-7.4-10c-1.1-7.7-2-15.5-3.4-23.2
		c-1.8-9.9-6.9-52.4-7.2-63.7c-0.1-3.7-0.6-7.3-1.6-10.8c-2.5-9.1-3.6-18.5-2.9-27.8c1.2-14.8,0.1-29.7,0.8-44.5
		c1-25.1-2.5-49.7-6.6-74.3c-1.8-10.8-2.2-21.7-3.8-32.6c-2.5-17.3-5.8-34.4-10.6-51.2c-0.4-1.2-0.8-2.5,0.3-4c4.5,2.5,9,5,13.4,7.7
		c5.7,3.5,11.9,5.1,18.5,5.3c40,1.5,79.6-2.3,119-8.5c7.5-1.2,14.9-2.4,22.3-3.7c2.3-0.4,4.3-0.2,3.8,3c-2,13.9-0.4,28.1-2.7,42
		c-2.6,16.2-5.1,32.4-10.6,47.9c-2.9,8.2-2.9,16.9-4.5,25.3c-0.6,3-5.8,15.9-0.4,16.7c3.1,0.4,6.2,0.3,9.3,0c28.3-2.4,56.6-3.8,85-4
		c3.1,0,34.2-1.4,36.7-2.1c4.8-1.3,6-0.3,6.2,4.5c0.4,11.7-0.1,23.4-2.1,35c-0.7,3.9-0.7,7.8-0.7,11.7c0,2.6-1.2,3.8-3.8,3.7
		c-3.8-0.1-7.7,0.5-12.1-0.6c1.2-3.4,2.5-6.1,3-9.2c2.4-13-14.1-25.4-24-26c-9.5-0.5-17.6,1.2-22.6,10.3c-3.3,5.9-1.8,12-0.2,18.8
		c-17.9-4.3-34.6-9.6-48.1-21.8c-3.7-3.3-7.4-4.7-12.3-5.4c-14.2-2.1-28.3-4.5-42.5-5.6c-18.2-1.5-36.4-1.5-54.6-0.6
		c-9.7,0.5-17.5,4.4-22.5,13.2c-1.9,3.4-4.1,6.6-6.4,9.8c-5.4,7.6-5,15.3-1,23.3c2.6-0.9,2.7-3.1,3.3-5c2.6-8.3,7-15.6,11.7-22.8
		c4-6.1,9.5-8.9,16.2-9.2c18-0.9,36-0.9,53.9,0.6c13,1.1,25.9,2.8,38.6,5.5c4.9,1.1,9.2,3,13.2,6.3c8.6,7.4,18.9,11.8,29.6,15.5
		c25.9,8.9,52.5,12.3,79.8,11.9c11.6-0.2,23.4,0.6,35.1,0.8c19.9,0.3,39.5-2.5,59-5.5c4.4-0.7,8.7-1.5,13.1-1.9
		c5-0.6,9.8,4.4,8.3,9.3c-1.6,5.3-1.1,10.4-0.3,15.4c1.6,10.4,1.1,20.8,1.2,31.2c0,4-0.7,7.8-1.8,11.5c-7.3,25-16.8,49.3-27.9,72.8
		c-2,3.2-5.4,3.8-8.7,4.4c-18.5,2.9-37.1,3.8-55.9,1.8c-12.4-1.4-24.9-0.2-37.4-0.6c-20.5-0.5-41,1.3-61.4-1.6
		c-6.2-0.9-12.1-2.9-18.2-3.8c-23-6.1-43.3-17.5-62.5-31.3c-4.9-3.5-9.9-6.8-14.7-10.3c-5.2-3.7-11.8-4.5-16.5-9.2
		c-0.8-0.8-2.4-1-3.7-1c-2.1,0.1-3,2.1-1.5,3.1c5.1,3.3,8.2,8.7,12.6,12.2c10.4,8.2,21.8,15.2,32.9,22.5c18,11.8,38,19.3,58.2,26.2
		c2.7,0.9,5.4,2,8,3c16.2,7.9,30.9,18.5,47,26.5c4.2,2.9,8.8,4.6,13.9,5.1C401.8,833.6,405.3,831.9,408.3,833.4z"/>
	<path class="st2" d="M631.7,1155.6c-4.3-9.8-9.4-19.1-16.2-27.3c-8.2-9.9-18.1-17-31.2-18.9c-2-0.3-3.9-1.3-5.9-2
		c-11.9-6.9-21.9-15.8-28-28.5c-1.5-5.5-11.8-20.9-13.5-57.2c-0.8-16.1-1-32.2,2-48.2c0.6-3.1,0-5.6-1.5-9.8c-2,1-1.5,3.1-1.9,4.6
		c-8,28.2-7.6,57.1-6.9,85.9c0.2,8,1.7,16,4.4,23.7c3.7,10.3,6.7,20.8,11.7,30.5c1.5,3,0.6,4.1-2.2,5c-20.6,7-33.2,20.8-38.3,42.2
		c-3.7,15.5,6.7,36.3,24.5,39.1c11.1,1.8,21.1,2.2,30.3-4.9c1-0.8,2.2-1.4,3.4-1.8c14.8-4.8,17.7-24.1,3.8-32.4
		c-4.3,1.8-8.7-0.3-13.1,0.5c-11.1,1.9-14.3,6.7-10.4,17c1.7,4.6,1.1,8-3.2,10.5c-11.6,2.5-16.1,0.2-22-11.9
		c-6.2-12.7-2.3-28.6,9.9-38.3c10.2-8.1,21.6-14.4,35.4-13.4c6.4,0.4,13-1.5,19,2.2c0.7,7.5,3.6,13.8,9.5,18.8
		c3.7,3.2,4.8,7.8,5.1,12.7c0.6,12.3-0.4,24.5-2.1,36.6c-1.3,9.3-6.6,17-12,24.3c-8.3,11-19,19.7-31.2,25.4
		c-10.7,5-22.8,2.1-33.5-1.8c-13.7-4.9-24.5-14.7-34.7-24.8c-10.6-10.5-10.9-23.8-9-37.2c1.6-11.1,4.8-21.9,10-31.9
		c1.6-3,2.6-6.1,2.5-9.7c-0.7-28.4-2.1-56.7-2.4-85.1c-0.1-8.6-2.1-17.1-1.7-25.7c0.9-23.1-3-46.1-3-69.2c0-5.8,1.1-11.1,3.4-16.6
		c4.5-10.8,4.7-21.8-1.5-32.3c-2.1-3.5-3.3-7-3.3-11c0-8.3-0.3-16.7,0.1-25c0.3-7.2,2.2-8.7,9.2-8.1c4.1,0.4,8.3,1.2,12.4,1.7
		c6,0.7,10.2,3.3,12.3,9.2c2.1,5.9,6.7,8.4,12.8,8.4c26.8,0.1,53.7,0.2,80.5,0c12-0.1,21-6.2,27.3-15.8c14-21.3,27.1-43.2,36.6-67.1
		c5.2-13,3.8-27.2,5.7-40.9c0.6-4.1,1.4-8.2,2.4-12.2c1.4-5.5,4.6-9.2,9.8-11.3c6.5-2.6,13.1-5.2,19.5-8.1c2.1-1,4.5-2.1,6.6-0.1
		c1.7,1.7,1,3.9,0.5,5.9c-5.5,23.2-7,47-5.6,70.6c1.3,21.2,0.4,42.3-2.6,63c-2.9,19.8-3,39.5-2.2,59.2c1.3,31.4,1.5,62.9,4.8,94.3
		c0.3,3,2.4,6.8-2.4,8.5c-5.7-8.2-8.9-17.3-11.6-26.9c-3.2-11.4-8.4-22.3-11.4-33.8c-0.4-1.6,0.4-3.7-1.8-4.8
		c-2.8,1.5-1.9,4.1-1.5,6.2c2.6,13.7,4.4,27.6,8.1,41.1c2.2,7.8,4.8,15.4,8.6,22.5c2.9,5.5,5.8,11,7.8,16.9
		c4.6,13.7,12.8,25.5,19.1,38.3c8.2,16.5,21.5,28.6,36.5,38.7c15.9,10.7,31.7,21.8,49.6,29.3c5.9,2.4,11.7,4.1,18,4.1
		c9.6,0,19.3,0.4,28.4-3.3c9.9-4,19.4-9,27.9-15.3c6.5-4.9,10.4-11.6,7.8-20.4c-0.7-1.1-1.1-2.3-1.5-3.5c-0.9-2.9-1.4-6.2-5.3-6.7
		c-4.1-0.5-5.8,2.2-7.1,5.6c-1.4,3.7-3.4,5.3-6.4,1.3c-1.3-6.4,1.2-11.5,5.5-16.1c11.8-12.4,25.5-15.6,41.3-8.8
		c-0.6,6,0,11.7,1.6,17.5c2,7.2,0.3,14.7-1.7,21.6c-6.7,23.1-14.7,45.6-33.5,62.3c-3.9,3.5-7.8,6.8-12.6,9c-8.7,4-17.5,8-26.2,12.1
		c-8.2,3.9-16.9,3.1-25.9,3.3c-18.4,0.3-36.1-4.4-54.2-5.9c-17.8-1.5-34.3-8.3-51.1-13.8c-25.3-8.3-48.4-21.6-72.3-33.1
		C637.7,1162.8,633.6,1160.3,631.7,1155.6z"/>
	<path class="st1" d="M166.3,865c9,3.9,17.1,6.5,25,9.6c16.1,6.3,32.8,9.9,50,11.8c19.1,2.1,38.2,4.6,57.3,7.2
		c11.1,1.5,22.3,1.4,33.5,2.1c11.2,0.7,22.3,2.2,33.1,5.2c16.4,4.6,33.2,6.6,50.2,6.4c7-0.1,13.9,1.1,20.9-0.1
		c2.4-0.4,3.2,1.1,3.2,3.2c-0.1,3.9-0.1,7.8-0.2,11.7c-0.4,15.1-0.3,30.2,3.3,45c1,4,1.2,8.3,1.2,12.4c0.1,12.7,2.2,25.3,0.4,38.1
		c-1.7,12.2,2.3,24.2,2.5,36.5c0.2,21.6,1.9,43.1-0.4,64.8c-1.2,11.6-1.2,23.4-1.7,35.1c-0.1,2.8-0.1,5.7,0.7,8.5
		c3.1,11.2,2.8,22.7,1.5,34.1c-0.3,3,0.3,5.7,0.5,8.5c0.2,2.6-0.7,3.9-3.4,3.9c-13.5-0.2-63.2-3.6-73.5-3.6
		c-10.4-0.1-20.7-2.4-30.9-4.5c-11.8-2.4-23.7-3-35.6-4.3c-6.5-0.7-12.8-2.2-19.2-3.2c-22.4-3.4-44.4-8.3-66.3-14.2
		c-22.5-6-44.2-13.7-63.8-26.7c-2.8-1.8-6.1-2.9-9.1-4.4c-6.7-3.3-8.3-6.7-6.5-13.8c1.6-6.3,3.1-12.6,5.1-18.8
		c3.8-12.1,3.3-24.7,4.3-37.1c1.9-24.4,3-48.8,7-72.9c7-43,12-86.1,11-129.7C166.2,872.5,166.3,869.4,166.3,865z"/>
	<path class="st1" d="M627,236.3c-26.6,6.3-53.5,6.6-80.7,5.4c-21.9-1-43.2-6.5-65.1-7.5c-30.2-1.5-60.3-2.6-90.5,1.1
		c-33.1,4.2-66.1,8.2-99.2,12.1c-17.8,2.1-35.6,4.8-53.7,4.3c-8.5-0.2-16.9-1.3-24.9-3.5c-0.7-2.6,0.9-3.4,1.8-4.6
		c1.3-1.7,2.9-3.1,3.8-4.9c12.3-24.5,23.2-49.4,28.7-76.5c2.1-10.2,4-20.4,6.4-30.5c3.5-14.4,10.8-27.1,18.3-39.5
		c3.7-6,7.2-12,9.9-18.6c3.8-9.3,10.5-16.1,19.9-19.9c7-2.8,13.5-6.7,20.1-10.4c10.5-6.1,21.6-8.5,33.7-4.4
		c6.1,2.1,12.6,3.3,18.8,5.1c10.2,3,19.9,6.9,28.5,13.7c15.6,12.3,32.1,23.2,52.6,25.9c2.6,0.3,4.9,1.5,7.3,2.7
		c3.9,2,7.9,3.3,12.6,3c6.3-0.4,12.2,2.6,18.3,3.7c2,0.4,4,1.1,6.1,1.3c2.2,0.3,4.2-0.5,5-2.8c0.9-2.7-0.5-4.7-2.8-5.8
		c-2.3-1.1-4.9-1.6-7.4-2.3c-2.5-0.7-5-1.4-7.4-2c-0.3-2.9,2-3.7,3.4-5.1c9.6-9,20.1-16.6,32-22.2c12.5-5.9,24.9-12,37.3-18
		c4.5-2.2,9-4.1,13.8-5.3c10.7-2.7,20.7-1.4,29.7,5.3c3.3,2.5,6.3,5.5,9.4,8.2c1.7,4.7-2.1,4.3-4.5,4.7c-23.1,3.6-27.8,10.1-35,32.1
		c-6.1,18.5,0.1,34.4,5,50.6c5.6,18.4,18.6,32.6,34.6,42c18.4,10.7,19.1,26.6,16.9,43.7C629.1,223.6,630.7,230.4,627,236.3z"/>
	<path class="st3" d="M705.5,1027.2c0.8-0.7,1.4-1.6,1.2-2.7c-2.6-14.6-2.4-29.4-3.4-44.1c-0.9-12.2-0.1-24.5-1.4-36.6
		c-2.1-19.5-0.7-39-1.3-58.5c-0.1-3.9-0.1-7.8,1.4-11.5c2.7-6.7,2.4-14,2.5-20.8c0.2-15,3.8-29.7,1.4-45
		c-1.7-10.9-1.6-22.3,0.5-33.4c0.3-1.5,0.4-3.1,0.4-4.7c-0.1-14.6,1.2-29,5.9-42.8c-0.7-0.4-1.2-1-1.5-0.9
		c-8.6,3.6-17.2,7.3-25.8,10.9c-3.1,1.3-4.4,3.4-5.5,6.8c-3.2,10-3.7,20.4-4.3,30.7c-0.7,13.1-3.3,25.7-10.1,37.1
		c-2.5,4.2-4.2,8.9-6.4,13.3c-7.1,13.9-15.5,27-23.6,40.2c-7.9,12.8-19.3,18.7-34.6,18.5c-25.3-0.5-50.5-0.2-75.8-0.1
		c-3.7,0-7.3-0.2-10.4-2.5c-2.3-1.7-4.6-3.5-4.9-6.7c-0.6-6-4.1-7.8-10-8.5c-4.8-0.6-9.8-0.7-14.6-2.2c-3.8-1.2-5,0.1-5.1,4.4
		c-0.1,9.6,0.1,19.3-0.1,28.9c0,3.1,1.3,5.3,3.1,7.7c6.7,8.8,7,27.7,0.5,36.9c-1.9,2.6-2,5.3-1.9,8.1c0.4,13.7-1.2,27.6,2.9,41.1
		c0.5,1.7,0.2,3.6,0.2,5.4c0.1,10.6-1.9,21,0,31.7c3.3,18.5,0.8,37.3,2.8,56c1.1,10,0.3,20.3,0.4,30.5c0,3.4-0.7,7,0.1,10.1
		c3.1,11.5-2.4,20.9-6.2,31c-5.4,14.1-8.6,28.7-5.2,44.2c1.1,5,4,8.6,7.1,11.7c8.6,8.6,17.7,16.6,28.6,22.6c8.2,4.6,16.7,4.8,25.3,6
		c8,1.2,14.8-1.3,20.9-6.4c10-8.2,20.7-15.6,27-27.5c3.8-7.2,6.6-14.2,7.3-22.6c0.8-9.3,1.1-18.6,1.4-28c0.2-6-1.7-10.7-6.1-14.5
		c-0.8-0.7-1.4-1.6-2.3-2.1c-6.2-4.3-7.2-9.8-4.1-16.3c15.8,1.8,25.1,12.5,31,25.5c7.3,16.1,8.3,33.7,7.3,51.2c-0.3,4.6-2,9-4.8,13
		c-7.4,10.5-16.1,19.9-26.3,27.5c-9.8,7.3-21.5,10.1-33.3,12.5c-14.6,2.9-26.8,5-41.5,6.3c-10.1,0.9-22.7-0.2-32.9,0
		c-10.8,0.2-20.5-3.6-29.8-8c-14.9-7-26.4-19.1-39.2-29.2c-0.6-0.4-0.9-1.2-2-3c18.2,0.4,35.6-0.2,53.9,0.8
		c-6.6-12.6-6.4-24.8-5.5-36.9c0.4-5.8,0-11.4-0.9-17c-2.2-13.1-2.7-26.2-1.8-39.6c1.6-22.3,0.8-44.7-0.4-67.1
		c-0.9-17.7-2.7-35.3-3.2-53c-0.4-12.7,0.3-25.5-2-38.2c-1.7-9-1.3-18.2-1.3-27.3c0-9.9,0-19.8,0-29.7c0-4.6,0.8-8.3,4-12.5
		c5.7-7.5,4.7-16.7,0.9-25.2c-0.7-1.6-1.8-3.2-3-4.6c-4.1-5.3-6.1-10.7-5.8-17.8c0.2-6-2.2-12.2-4.1-18c-3-9.1-0.4-14.7,8.8-16.7
		c3-0.6,6.2-0.3,9.3-0.7c4.6-0.6,7.4,0.8,8,5.8c0.2,1.8,1,3.5,2.5,4.8c8.8,7.9,18,14.4,29.7,17.9c31.5,9.4,63.5,10.6,95.9,8.9
		c5.9-0.3,29-1,35.4-11.9c4.9-13.2,11.6-25.6,16.2-38.9c6.3-18.5,11.1-37.4,15.6-56.4c0.2-0.8,0.5-1.6,0.4-2.3
		c-1.3-8.4,3.3-12.2,10.5-15.3c19.8-8.6,39.3-17.9,59-26.8c4.4-2,8.4-5.4,14.2-5.3c0.5,6.7-0.6,13.4-2.1,19.6
		c-1.8,7.7-1.8,15.4-3,23.1c-3.2,21.1-6.8,42.1-8.8,63.3c-1.4,14.7-4.3,29.3-3.8,44.2c0.5,16.1-0.9,32.3,0.1,48.4
		c0.9,15.3,0.7,30.6,2.1,45.9c0.4,4.6-0.6,9.3-1.1,13.9c-1.4,14-1.5,27.8,1.4,41.8c2.1,10.1,3.3,20.5,5.2,30.6
		c2.5,13.6,8.3,25.3,17.8,35.7c8.2,9,17.6,16.6,25.5,26c7.1,8.4,18.1,12,28.1,16.3c14.9,6.4,30.8,9.1,46.2,13.9
		c2.4,0.7,3.5,1.8,4.2,3.9c1.4,4.8,4.1,8.9,7.4,12.6c-5,6.6-11.8,9.6-19.3,11.3c-13.1,3-25.9,3.8-38.5-3.1
		c-13.5-7.4-26.1-16-38.6-24.8c-10.1-7.1-19.9-14.8-26.4-25.2c-9.1-14.5-20.3-27.7-26.6-44C713.5,1041.2,707.9,1035,705.5,1027.2z"
		/>
	<path class="st1" d="M758.5,281.5c26,2,51.8,5.1,76.5,13.8c5.7,2,11,4.7,16,8.1c2.6,1.8,4.9,3.9,6.8,6.4c5.8,7.7,4.8,11.7-3.3,16.8
		c-7.9,5-16.7,6.8-25.8,8.2c-28.3,4.3-56.5,9.5-84.3,16.3c-15.2,3.8-30.8,4.2-45.9,7.7c-19.5,4.5-39.1,8.8-58.8,12.2
		c-23.4,4-47.2,4.1-70.8,1.9c-15.3-1.4-30.6-2.7-45.8-4.6c-21.2-2.7-41.8-8.7-62.9-11.9c-28.8-4.4-57-12-85.7-17
		c-37.9-6.7-75.6-14.9-113.5-21.2c-25.7-4.2-51.4-7.6-77.6-6.5c-17.9,0.8-35.9,0.1-53.9,0.1c-11.2,0-22.3,1.2-33.5,2.3
		c-13.2,1.3-26.5,0.7-39.8,0.6c-3.4,0-6.7-1.4-9.6-2.9c-4.4-2.4-4.9-5.5-1-8.4c6.8-5.3,14.2-9.2,23-10.9c22.5-4.2,45.6-4.6,67.9-9.7
		c2.7-0.6,5.8-0.8,8.5-0.4c9.2,1.4,18.1-0.2,27.1-1.5c3.3-0.5,6.7-0.5,10.1-0.7c3.7-0.2,6.1,0.9,5.3,5.3c-0.3,1.5,0.2,3.1,1.5,4.2
		c10.2,8.4,21.1,15.4,34.9,15.4c22.7,0,45.3,0.6,68-0.2c15.6-0.5,31.1-2.5,46.6-4.4c14.8-1.9,29.6-1,44.4-0.8c4.7,0,9.4,0.6,14,0.5
		c11.7-0.2,23.3,0.5,34.9,2.9c10.1,2.1,20.7,2.3,31.1,3.1c14.3,1.1,28.1,5.2,42.3,7.4c19.8,3.1,39.8,4.8,59.6,7.4
		c12.4,1.6,24.9,2.6,37.4,2.4c25-0.4,49.9-2.6,73.5-11.7c2.2-0.8,32.7-13.3,41.6-16.1c10.8-3.5,22-6.1,31.7-12.5
		C751.8,280.9,755.1,280.1,758.5,281.5z"/>
	<path class="st4" d="M841.2,789.9c6.6-2.3,13.7-2.2,20.5-4.2c5.9-1.7,12-2.9,17-6.5c2.5,2.2,3.1,4.6,3.2,7.2c0.1,1.7,0.8,3,2.8,3
		c1.8,0,2.8-1.1,3.3-2.7c0.5-1.7-0.1-3.7,1.5-5.1c2.3,4.6,4.8,9.1,8.4,12.8c-4,3.3-9,2.2-13.5,3c-9.4,1.5-18.2,5.7-27.8,5.6
		c5.5,0.6,10.9,0,16.2-1.3c5.9-1.4,9.8-0.3,9.8,6.8c0,3.4,1.5,6,4,8.1c1.5,2.5,4.5,4,4.9,7.3c-11.5-1.1-23.2,1.9-34.7-0.9
		c-1.5-0.4-3.4-0.5-3.9,1.4c-0.6,2.6,1.6,2.6,3.4,3.1c3.8,1.2,7.6,1.4,11.5,1.5c2.6,0.1,5.2,0.3,7.8,0.6c3.3,0.4,5,2,4.9,5.6
		c-0.2,4.7-0.2,9.4,0.5,14c0.6,3.9-1.3,4.7-4.2,4.7c-6.2-0.1-12.2,2.2-18.5,1.5c-1.5-0.2-3.5-0.1-3.5,2.1c0,1.8,1.7,2.4,3.4,2.5
		c7.2,0.3,14.4,0.1,21.5,1.4c1.3,2.1,0,4.1-0.6,5.9c-2,5.7-3,11.4-3.5,17.4c-0.5,5.7-3,11-6.6,15.6c-1.8,2.3-3.6,2.6-5.9,0.7
		c-3.2-2.7-6.4-5.3-9.7-7.9c-1.4-1.1-3.3-2.6-4.7-0.6c-1.4,1.9,0.7,3.3,2,4.4c3.9,3.4,7.9,6.7,12.1,10.4c-1.4,3.1-4.7,5-5.1,8.5
		c1.1,2.4,4.3,1.7,5.7,3.7c-3.5,3-4.4,8.4-9.6,9.7c-3-3.5-6.1-6.2-11.2-3.1c-2.9,1.8-6,0.8-8.6-1.5c-2.3-2-4.4-4.2-7.4-5.8
		c0.4,2.1,1.8,3,2.6,4.2c4.5,6.6,4.2,9-2.4,13.3c-4.1,2.7-8.5,4.9-11.8,8.9c6.3-3.2,12.5-6.4,19.2-8.8c2.8-1,5.6-2,8.2,0
		c4.7,3.4,9.5,6.7,15.4,7.7c0.7,4.7-2.4,8.4-3.4,12.6c-3.1,13.8-4.7,27.6-4.5,41.7c0.5,28.8-1.6,57.6-3.3,86.4
		c-0.3,5,3.2,12.1-0.7,16.2c-10-2.7-21.4-5.8-30-9.4c-11.2-4.7-22.2-10.2-32.4-16.9c-5.6-3.7-9.9-9.2-13.8-14.7
		c-8.6-12.4-15.6-25.8-21.6-39.6c-2-4.6-2.1-9.6-2.8-14.5c-1.1-7.4-2.9-14.8-2.2-22.4c1-10.2-2.3-20.1-1.6-30.3
		c0.2-2.5-0.6-5.2,1.4-8.1c5.4,1.4,6.4,5.6,6.5,11.9c4.3-5.4,8.4-4,12.8-2.6c2.4,0.8,5.1,0.9,7.7,0.8c5-0.1,9.5,0.3,10.8,7.8
		c2.4-4.6,4.5-6.9,9.1-6.9c5.6,0.1,4.2,6.1,7.5,7.4c1.6-0.4,1.7-1.5,1.4-2.4c-1.5-4.2-1.6-7.6,3.6-9.3c1.2-0.4,2.3-1.4,1.8-3
		c-0.5-1.4-1.8-2.1-3.1-1.7c-5.5,1.4-6.5-2.1-7.5-6.2c-0.6-2.6-0.9-5.6-4.2-7.7c-1.6,4.4-0.6,8.4-0.3,12.2c0.1,1.8,0.3,3.1-1.9,3.3
		c-1.7,0.1-3-0.4-3.4-2.3c-0.7-3.5-2-7-1.9-10.7c0.1-1.1-0.5-2-1.8-2c-1.2,0-1.9,0.8-2.2,1.8c-1.2,3.5,0.4,7.3-1.3,11.1
		c-4.3-0.5-8.6-1-12.8-1.6c-4.7-0.7-7.4-3.3-7.8-8.1c-0.2-2.1-0.3-4.1-0.5-6.2c-0.1-0.8-0.4-1.5-1.3-1.7c-1.3-0.4-2.1,0.4-2.5,1.3
		c-0.8,1.8-1.3,3.7-2.1,6.2c-5.1-3.1-7.7-6.3-8.7-12.2c-1.6-9.1,0.3-17.9,0.3-26.9c0-8.3,0-16.6,0-25c-0.1-14.6-1.8-29.1,0.8-44
		c2.8-15.7,5.6-31.6,5.9-48.2c5.3,1.3,10.3,1.9,14.8,3.6c17.9,7,36.5,7.8,55.3,7.2c4.2-0.1,8.3-0.1,12.5-0.1
		c4.4,3.7,5.2,8.9,5.3,14.2c0.2,15.1,0.4,30.2-0.1,45.3c-0.6,18-9.5,32.4-31.3,32c-6.5-0.1-12.8,2.1-19.3,3.1
		c-2,0.3-4.5,0.7-4.3,3.5c0.3,2.8,2.9,2.5,4.9,2.7c6.4,0.7,13-1.3,19.2,1.7c-1.6,4-1.6,4.2-6.7,4.3c-11.4,0.3-22.8,0-36,0.3
		c14.1,0.1,26.3,2.2,38.6,0.1c4.8-0.8,9.8-0.6,13.6-4.4c17.5-2.6,24.6-11.7,23.6-30.1c-0.2-2.9-0.1-5.7,1.2-8.3
		c3.9-19.2,4.5-38.5,0.9-57.8C839.2,795.1,839.1,792.3,841.2,789.9z"/>
	<path class="st2" d="M714.6,634.8c-12.7,2.4-25.5,4.8-38.2,7.2c-6.9,1.3-13.6,3.4-20.2,5.9c-1.9,0.7-3.8,1.8-5.5-0.5
		c-8.1-11-20.4-12.5-32.6-13.5c-12.4-1-24.8-0.1-37.2-1.7c-12.6-1.6-25.4,0.7-38.1,1.4c-16.6,0.9-32.8,4.8-49.2,6.6
		c-3.9,0.4-7.7,0.8-11.6,1.1c-13.9,1.7-14.7,1.1-13.1-12c0.9-7.5,1.1-15,1.9-22.5c0.8-7.5-2.3-10.6-10-9.7
		c-6.2,0.7-12.4,0.7-18.6,1.8c-3.1,0.6-6.2,0.7-8.8-1.6c-0.2-3.6-0.3-7,1.3-10.6c2-4.7-1.6-9.4-6.8-9.6c-3.3-0.1-6.7,0.3-10.1,0.6
		c-18.7,1.7-37.5,2.4-56.3,2.3c-2-2.4-1.1-4.8-0.4-7.4c5.2-17.2,7.5-34.9,7.3-52.8c-0.1-9.4,0.4-18.6,1.9-27.8
		c0.4-2.6-0.3-6.9,5-5.6c5.2,14.4,10.6,28.8,20,40.9c11.1,14.3,24.6,25.8,42.6,30.8c3.2,0.9,6.3,2.2,9.5,3.3
		c27.7,10,54.5,4.6,81.2-4.3c6.1-2,10.8-6.1,15-10.7c2.5-2.8,4.7-6.4,9.3-6.1c0.8,0.3,1.5,0.8,1.9,1.5c0.9,1.8,1.2,3.9,2.2,5.7
		c1,2.1,1.7,4.4,2.7,6.5c7.1,14.5,25.7,21.3,40.4,14.7c3.1-1.4,5.6-3.6,7.7-6.4c11.6-14.8,12.9-31.9,10.3-49.6
		c-1.2-8.3-3-8.7-9.3-3.6c-10.5,8.5-22.7,11.1-35.8,10.3c-4.6-0.3-8.7-1.9-9.7-7.3c5.3-19.8,10-39.7,11.9-60.2
		c0.3-3.9,2.4-6.2,6.5-6.2c0.5,0,1-0.1,1.6-0.1c6.7-0.5,14.2-2.6,20,0c6.9,3.1,0.4,11.8,3.5,17.3c5,17.5,12.2,33.8,22.8,48.9
		c6.6,9.5,14.7,17.2,22.9,25c8.2,7.8,17.1,9.7,29.4,12.2c9.5,4.1,19.8,3.5,29.7,5.3c8,1.4,10.6,3.8,9.9,11.9
		c-1.7,19.9-3.2,39.8-3,59.8C718.5,629.5,718.3,633,714.6,634.8z"/>
	<path class="st2" d="M469.1,389.3c-1.8,0.3-39.4,3.4-56,7.8c-6.3,1.6-12.4,3.8-18.4,6.2c-10.7,4.2-22,6.2-33,9
		c-4.1,1-9.1,1.6-10.7,5.2c-2.1,4.6-1.8,10.3,0.1,15.2c1.6,4.4,5.4,6.7,10.3,7.3c5.9,0.8,6.2,1,5.5,6.6c-0.9,7.2,1.3,13.9,2.6,20.8
		c1.7,4.9-1,6.9-5.3,7.1c-14.1,0.4-27.8,4.2-41.7,6.1c-8.4,1.1-8.8,0.9-8.7-7.7c0-3.4-0.5-6.8,0.5-10.1c0.4-1.2,0.8-2.5,1.2-3.7
		c2.4-7.5-1.7-12.7-9.3-11.2c-13.2,2.7-26.6,4.8-40,6.6c-29.4,4.1-58.8,7.4-88.5,6.9c-8.7-0.2-9.7-1-9.8-9.9
		c-0.2-13.8-0.2-27.4,3.2-41c3-12,3-24.7,7.2-36.6c2.8-7.8,6-15.5,7-23.9c0.3-2.8,2-5.3,4-7.4c3-4.4,7.3-5.3,12.3-5.3
		c25.5-0.2,50.9,0.3,75.7,8.2c8.3,2.6,17.5,1.9,26.3,3.3c36,5.7,71.3,14.6,107.1,21.6c8.4,1.6,16.1,5.9,24.4,8.2
		c8.3,2.3,16.6,4,25.3,4.6C463.5,383.4,469.3,382.4,469.1,389.3z"/>
	<path class="st4" d="M492.6,831.4c4-6.6,7.3-12.2,10.7-17.7c7.4-11.9,12.4-25.1,18-37.9c7.9-18.1,15.1-36.5,20.9-55.5
		c2.4-7.8,3.8-15.6,3.7-23.8c-0.1-9.3-0.5-18.6,1-28c1.3-8.2,0.7-16.6-4.6-24.6c5.2-2.2,10-1.3,14.4-1.9c9.5-1.1,19-1.5,28.7,0.4
		c6.3,1.2,13,0.6,19.5,0.4c11-0.4,21.7,1.1,32.3,4.4c3,0.9,4.5,2,5.5,5.3c5,16,9.6,32.1,11.6,48.7c1.9,16,1.5,32.2-2.4,48
		c-7.1,28.8-15.1,57.3-29.2,83.7c-2.3,4.4-4.9,6.5-9.9,7.3c-8.5,1.3-16.9,2.8-25.5,2.6c-16.4-0.3-32.7,0.7-49.1-1.4
		C522.9,839.7,508.3,835.3,492.6,831.4z"/>
	<path class="st4" d="M637.9,311.3c-5,0-9.8,0.7-14.7,1.4c-22.1,3.1-44,0.1-65.9-2.4c-13.4-1.5-26.8-3.5-40.2-4.7
		c-13.5-1.2-26.5-5-39.8-7.1c-12.3-2-24.8-2.4-37.2-4c-3.3-0.4-6.7-0.5-10-1.4c-7.3-2-14.9-2.4-22.4-2.2c-17.7,0.5-35.3-1.7-53-1.3
		c-12,0.3-23.8,2.4-35.6,3.6c-9.6,1-19.1,2.1-28.7,2.3c-21.6,0.5-43.2,0.1-64.8,0.2c-9.7,0.1-18.2-4.2-26.7-7.9
		c-4.8-2.1-5.1-4.5-3.2-9.6c2.2-5.8,4.4-11.6,6.6-17.5c1.3-3.5,3.7-4.7,7.3-4c5.1,1,10.2,1.9,15.3,3c15,3.1,30,1.1,45-0.5
		c12.1-1.2,24.2-2.7,36.4-4.1c14.7-1.7,29.4-3.3,44.1-5.1c10.8-1.3,21.6-2.6,32.4-4.2c30.3-4.5,60.7-4,91.1-2.9
		c16.8,0.6,33.6,2.9,50.1,6.7c1.5,0.3,3,0.8,4.6,0.8c20.8,0.5,41.6,2.4,62.4,1.1c11.1-0.7,22.1-3.2,33.1-5c2.6-0.4,5.1-0.7,7.7-0.6
		c4.4,8.6,2.9,18.2,3.9,27.3c0.8,7.7,0.5,15.5,0.1,23.3C635.4,301.6,640.3,305.9,637.9,311.3z"/>
	<path class="st1" d="M897.5,794.4c-7.5-3.1-7.5-3.1-8.1-12c0-0.3-0.1-0.5-0.1-0.8c0.1-2.4,0.2-4.8,3.6-4.5c0.8,0.1,1.5,0,2.3,0
		c3.4,0,6.5-0.9,6.5-4.9c-0.1-4.2-3.6-4.4-6.8-4.5c-7.3-0.3-7.3-0.3-7.1-7.3c0.1-2.1,0.5-4.2,0.3-6.2c-0.5-4.7,1-7.9,5.8-9.4
		c2.7-0.9,5-2.7,5.7-6c-5.1-3-5.4,3.3-8.4,4.2c-5.1,1.4-5-2.6-5-5.4c0.1-10.7,0.5-21.1,11.5-27.7c4.9-2.9,7.7-9.2,14.1-10.5
		c1.6-0.3,2.7-1.8,2.6-3.5c-0.1-2.2-1.6-3.1-3.5-3.7c-2-0.6-4.1-0.4-6.2-0.6c-5.3-0.5-10.2-2.2-14.6-5.1c-2.3-1.5-4.1-3.5-3-6.5
		c1-2.8,3.6-2.4,6-2.3c3.6,0.2,7.1,1.8,10.7,0.5c0.2-1.8-1.1-2.4-2.1-3c-21.4-11.7-42.8-23.5-67-29c-7.3-1.6-14.8-3.3-20.7-8.5
		c-4.2-3.7-3.6-5.4,2.1-7.1c22.3-1.2,44.4-4.8,66.6-7c13.7-1.4,27.6-1.7,41.1-4.1c19.5-3.5,38.9-1.6,58.3,0.2
		c10.3,0.9,20.3,4,30.4,6.1c0.6,3.1-1.5,4.7-2.7,6.5c-5,7.6-10.4,14.9-15.2,22.7c-2.3,3.8-5.5,3.5-8.8,3.3c-8.8-0.7-15.6,2.8-21.5,9
		c-3.2,3.3-4.1,7.8-6,11.7c-3.6,3-7.9,1.8-12,2.1c-4.8,0.3-9.8-0.7-15.7,1.4c5.9,4.8,12.6,4.4,18.4,6.5c2.4,0.9,6.1-0.1,6.3,4.1
		c-0.1,1.5-0.2,3-0.3,4.5c-3.6,3.7-9,3.7-13.3,6.1c-2.4,1.3-6.5,2.2-5.9,5.3c0.7,3.4,4.7,2,7.4,2.2c5.1,0.4,10.2-2.6,15.2,0.3
		c1.1,1.8,2.1,3.6,3.2,5.3c1.1,1.7,1.4,3.2-0.1,4.9c-2.5,2.7-2.8,6.1-2.8,9.5c0.1,14.1-3,27.9-4.5,41.8c-1.2,11.3-4.9,22.3-7.7,33.4
		c-1.3,5.1-2.6,10.1-2.4,15.4c0.4,14.5-3.4,28.4-5.7,42.5c-0.4,2.7-1.3,4.3-4.4,4.1c-13.8-0.7-27.6,0.8-41.3,1.4
		c-1.3,0.1-2.6,0.1-3.7-0.8c-1-1.8,0.2-3.5,0.1-5.3c-0.2-3.8,1.9-5.1,5.3-5.1c4.7,0,8.4-2.1,11.8-5.4c-3.7-3.5-7.6-2.1-11.3-1.5
		c-10.3,1.7-10.2,1.8-9.8-8.9c0.1-2.7,0.8-5.1,1.7-7.5c1.3-3.7,3.3-5.4,7.5-4.9c2.9,0.3,7.9,1.6,8.3-1.4c0.6-4.5-5-2.8-7.7-4.3
		c-1.1-0.6-2.5-0.4-3.8-0.5c-2.4-1.4-5.5-2.2-4.8-6c-0.8-2.8-0.3-5.6-0.5-8.5c-0.3-6,0.9-10.8,7.7-12.3
		C895.4,796.8,896.5,795.6,897.5,794.4z"/>
	<path class="st5" d="M392.8,463.7c10.9-0.2,15.5-4.2,15.1-12.7c-0.4-8-4.7-10.7-15.9-9.8c0-5.4,3.1-8.8,7.2-10.9
		c12.4-6.4,24.8-12.9,38.8-15.1c4.1-0.6,63.5-5.1,81.7-0.8c1,0.2,2,0.4,3.1,0.5c9.6,1.6,13.6,5.5,14.1,14.9
		c0.4,7.3,1.1,14.5,1.3,21.8c0.3,10.8-0.4,21.5-3.3,31.7c-7.4,25.4-20.6,46.5-46.9,56.4c-10.4,3.9-21,3.2-31.2,0.1
		c-10.9-3.3-21.4-7.4-30.7-14.4c-10.9-8.2-18.6-18.6-24.4-30.8C397.1,484.8,392.9,475.1,392.8,463.7z"/>
	<path class="st4" d="M816.3,630.5c-1.3,0.8-2.6,1.5-3.9,2.3c2.6,4.4,6.8,6.6,11.3,8c12.9,4,25.8,7.7,38.7,11.5c1.7,0.5,3.6,1,5.1,2
		c12.1,7.7,25.5,12.9,37.9,20c2.1,1.2,3.5,2.6,2.6,4.9c-0.9,2.3-3,3.1-5.1,2.1c-3.2-1.5-6.8-0.4-9.9-1.7c-1.7-0.7-3.7-1.4-4.4,1.1
		c-0.6,2.1,0.9,3.3,2.6,4.2c4.9,2.5,9.8,4.9,15.5,4.7c1.8,0,3.7-0.1,5.5,0.2c3.6,0.6,5.9,3.1,5.8,6.2c-0.1,3.3-2.1,5.9-5.1,5.8
		c-5-0.1-7.2,2.9-9.9,6.3c-3.1,3.8-7.2,6.7-10.9,9.9c-2.3,2-3.8,4-2.5,7.4c1.4,3.9-1.3,7.6-1,11.5c0.2,2.5-0.8,5.5,3.1,5.9
		c-5.6,3.2-12.1,3.8-18.1,7.8c-1.2-7.9-1.4-14.8,0-21.7c1.4-6.7,0.8-13.5,2.1-20.1c1-5.2-1.4-7.5-6.8-6.6
		c-14.3,2.4-28.6,0.6-42.9,1.4c-6.5,0.4-12.8-2.9-19.3-0.6c-1.9-3.5-1.4-7-1-10.2c3.2-22.7-6.2-50.4-37.2-56.4
		c-5.4-1.8-9.4-2.2-7.8-9.6c0.9-3.9,0.9-7.7,1-11.6c0.6-13.5,1.2-27,1.8-40.5c0.7-15.4-1-30.7-1.7-46c-0.2-4.3,0.6-8,3.1-11.8
		c5.6-8.7,11-17.7,14.3-27.6c1.3-3.9,3.5-5,7.5-4.9c6.1,0,11.8,1.3,17.4,3.5c8.4,8.8,20.1,10.3,30.8,14c8.8,3,9.8,4.4,5.7,12.7
		c-3.3,6.6-5.6,13.3-7.2,20.5c-4.9,20.5-11.6,40.4-20.1,59.6c-3,6.7-4.4,13.8-4.7,21.1c-0.6,2.5-2.3,4.5-3.5,6.7
		c-2.2,4-0.6,7.1,3.9,7.5C811.2,630.6,813.8,630.5,816.3,630.5z"/>
	<path class="st5" d="M629.3,454.1c6,2,9.9-1.1,12.7-6c2-3.6,1.8-7.5-0.8-11c-3.8-5.1-8.7-3.5-13.5-2c-1.2-14,1.1-19.2,15.4-24.3
		c23.2-8.3,47.2-12.3,72-10.2c9.5,0.8,19.1,1.3,28.6,1.8c3.9,0.2,7.7,1.1,11.3,2.5c7.7,3,10.3,7.1,10.6,15.3
		c0.8,19.3-1,38.5-5.8,57.2c-3.5,13.7-9.7,26.4-19.5,36.9c-8.4,9-19.1,13.2-31.4,13.4c-13.3,0.3-26.4-1.1-38.9-6.5
		c-3-1.3-5-3.5-7.5-5.1C649.8,507.6,624.4,481,629.3,454.1z"/>
	<path class="st4" d="M627,236.3c-2.6-9.9,1.8-19.3,1.8-29.1c0-7.2-2.4-13.8-3.6-20.6c-0.4-2.5-2.6-3.8-4.6-5
		c-17-9.8-30.5-23.1-40.7-39.9c-3.2-5.3-4.7-11-6-16.7c-1.4-6.3-2.6-12.7-5.7-18.5c-1.5-2.7-1.6-5.2-0.8-8.2
		c2-7.8,3.3-15.7,5.5-23.4c2.7-9.7,7.6-18.1,16.7-23.6c5.3-3.2,10.9-4.6,17.1-4.2c2.3,0.1,5.5,1.4,6.2-2.7
		c7.7,7.1,13.4,15.3,18,24.9c8,16.6,14,34.2,23.6,50c3.6,5.8,5.9,12.2,8.2,18.5c1.6,4.3,4,7.8,7.1,11.1c10.9,11.9,21,24.4,28,39.2
		c3.5,7.5,4.6,15.3,4.7,23.5c0,3.1-1.3,4.8-4.1,5.7c-18.1,5.5-35.9,12.1-54.5,15.9C638.2,234.2,632.9,236.8,627,236.3z"/>
	<path class="st1" d="M842.5,1099.6c2.4-20.6,2.6-41.3,3.9-62c1.2-18.4,0.4-36.8,1.2-55.2c0.2-5.7,1-11.4,2.6-16.8
		c2-6.8,0.7-14.6,6.5-20.2c0.6-0.6-0.4-1.9-1.4-2.4c-4.7-1.1-7.6-4.6-7.8-9c-0.2-3.2,3.3-4.8,6.6-5c2.9-3.3,3.3-9.1,9.1-9.6
		c4.1-0.5,7.6,1,10.9,3.3c4.3,3,8.6,5.8,13.4,9.1c0.7-5.1-3.6-7.4-5.5-12.1c16.8,1.1,32.7-1.2,48.2-2.2c0.5,1.1,0.7,1.3,0.6,1.5
		c-4.8,20.3-4,41.3-7.6,61.8c-2.6,15-2.8,30.5-3.6,45.8c-0.4,7.6-1.6,15-3.2,22.3c-0.5,2.5-1.6,4.2-4.1,5.2
		c-8,3.2-12.8,9.6-16.2,17.1c-1.4,3-3.2,4.5-6.4,4.6c-14.5,0.1-21.9,10.4-28.6,21c-4,6.3-3.9,7-10.7,5.2
		C847.8,1101.3,844.7,1101.8,842.5,1099.6z"/>
	<path class="st4" d="M412.8,897.8c-16.7,0.9-35.7-3.5-54.6-8.3c-7.3-1.8-14.8-2.7-22.4-3c-22.6-0.9-45.1-3-67.4-6.9
		c-11-1.9-22.2-2.7-33.3-3.6c-12.8-1-25-4.6-37-9.1c-5.8-2.2-11.8-4-17.8-5.5c-10.5-2.7-18.2-9.2-19-21.7c-0.4-7,0-14-1.9-20.9
		c-0.4-1.4-0.2-3.2,0.2-4.6c1-4,5.4-6,9.1-4c2.1,1.1,4.1,2.3,5.8,3.9c15,13.2,33.2,19,52.3,22.7c14,2.8,27.9,6.1,41.5,10.6
		c17.3,5.8,35.2,8.9,53.2,11.6c15.2,2.3,30.4,3.5,45.6,5.6c6.2,0.9,12.5,0.5,18.7,0.6c8,0.1,16.1-0.6,24.1,1.1
		c6.5,1.4,12.9-1.3,19.4-1.2c11.7,0.2,22.3,15.5,17.4,26.1c-2.2,4.8-7.1,6.7-12.3,6.8C428.4,897.9,422.2,897.8,412.8,897.8z"/>
	<path class="st2" d="M48.8,1222.7c-11.2-7.3-18.4-18-25.1-29.2c-0.9-1.6-1.6-3.3-2.5-4.8c-8.2-13.9-7.6-29-5.1-43.9
		c1.5-8.6,7.8-15.1,16.6-18.1c5.4-1.9,12.7,0.1,16.5,4.3c3.9,4.4,4.2,8.1,1.2,13.5c-0.8,1.4-1.7,2.6-2.5,4
		c-5.6,9.3-7.7,10.2-18.4,8.2c-1.5-0.3-3-1.4-4,0.6c-0.8,1.6-0.4,3.2,0.6,4.4c2.9,3.8,6.9,5.3,11.5,5.4c0.8,0,1.5-0.3,2.3-0.5
		c5.5-1.4,9.7-0.5,14.4,3.6c8.3,7.1,19,9.2,29.7,10c8.8,0.7,17.7-0.2,26.3-1.6c4.9-0.7,9.8-0.5,14.7-1.1c9.1-1.1,17.7-3.8,26.4-6.6
		c2.3-0.7,4.8-1.3,6.9-0.4c12.9,5.6,26.6,9,38.9,15.7c5.1,2.8,9.9,6.5,9.1,13.3c-0.7,6.3-5.7,8.8-10.9,11.1
		c-28.7,12.4-59,18.8-89.8,21.6C86.4,1234.1,67,1230.9,48.8,1222.7z"/>
	<path class="st6" d="M631.7,1155.6c7.9,7,18,10.1,27.1,15.1c20.3,11.1,41.5,20.4,63.4,27.8c10.3,3.5,20.9,6.2,31.2,9.7
		c4.6,1.5,9.7,1.4,14.6,1.9c42.4,13.9,92.6-4.8,100.8-8.9c15.7-7.9,26.4-20.6,33.7-36.4c3.5-7.5,6.7-15.2,9.8-22.9
		c3.1-7.8,4.2-16,5.3-24.2c0.5-4,0.8-8.3-1.4-12.2c-2.8-4.9-1.9-9.5,1.6-13.7c10.3,4.7,14.6,13.8,15.5,24.1c1,10.8,1,21.9,0,32.8
		c-1,10.7-5.9,20.4-11.8,29.4c-3.7,5.7-7.3,11.4-12.4,16c-4.5,4-30.8,27.3-41.7,31.9c-7.6,3.2-15.8,5.3-23.7,7.8
		c-5,1.6-27.2,3.5-33.1,3.2c-51.6,3.9-131.6-31.1-141.4-35.1c-10.9-4.5-20-12.1-30.4-17.4c-1.6-0.8-2.6-1.8-2.4-3.6
		c0.7-7.3-2.1-13.8-4.2-20.4C631.7,1158.8,631.9,1157.2,631.7,1155.6z"/>
	<path class="st3" d="M469.1,389.3c-1.9-4.7-6.6-4.1-9.9-4.2c-13.3-0.1-25.6-4.2-37.7-8.8c-10.3-4-20.8-6.6-31.5-8.4
		c-16.4-2.7-32.6-6-48.7-9.8c-14.9-3.5-29.8-6.3-45.1-7.9c-10.2-1.1-20.5-1.7-30.5-5.5c-7.9-3-16.8-2.9-25.2-4
		c-13.5-1.8-27-0.7-40.5-1.3c-4.1-0.2-7.7,0.5-10.9,3.1c3.8-5.8,7.7-11.6,11.5-17.5c1.9-3,4.4-4,7.8-4c10.8-0.1,21.2,2.3,31.8,3.6
		c31.8,4,62.9,11.7,94.5,17.1c27.5,4.7,54.6,11,82.1,15.5c37,6,73.6,14.1,110.5,20.7c10.7,1.9,21.7,2.4,32.6,3.8
		c18.4,2.5,36.9,2.1,55.4,1.5c18.6-0.5,36.8-3.4,54.6-8.8c19-5.8,38.7-7.8,58.2-11.2c4.1-0.7,5.3,1,6,4.8c2,10.4,0.7,12-9.3,9.6
		c-3.1-0.8-6.2-0.7-9.3-0.7c-9.1,0-18.2,0.1-27.3,0.2c-2.1,0-25.6,4.1-35.3,5.8c-12.7,2.2-24.8,6.1-36.4,11.5
		c-3.6,1.7-5.4,1.6-7.4-2c-3.2-5.9-9.4-7.4-15.3-7.7c-10.1-0.5-20.3-0.8-30.3,1.8c-4.5,1.1-8.5,2.4-9.7,7.6
		c-0.7,3.1-2.7,4.3-6.3,4.4c-4.8,0.1-9.3-0.7-13.6-2.4c-4.4-1.8-9-2.5-13.6-3.1C508.5,391.4,482.9,387.2,469.1,389.3z"/>
	<path class="st3" d="M314.1,462.7c0,5.2,0,10.3,0,15.8c6.3,1.3,11.6-1.1,17.1-1.8c11.3-1.4,22.2-5.1,33.8-4.3c3.9,0.3,4-2.4,4.4-5
		c1.9,6.4,3.8,12.8,5.7,19.2c-2.4,0.3-2.6,1.9-2.8,3.9c-0.9,11.1-2.1,22.2-1.7,33.4c0.4,14.3-2.7,28.3-4.8,42.3
		c-0.8,4.9-4.7,8.7-4.4,14c-19.4,1.2-38.8,2.3-58.3,3.5c-1,0.1-2.1,0.1-3.1,0.2c-2.9,0.2-4.5-0.9-4-4.1c1.7-10.8,2.6-21.7,6.1-32.1
		c7.4-22.1,10.4-44.9,10.8-68.1C312.9,474,311.8,468.2,314.1,462.7z"/>
	<path class="st7" d="M637.9,311.3c0.2-1.7-0.6-3-1.7-4.2c-2.5-2.9-3.1-6.4-3-10.2c0.1-9.1,0.9-18.2-0.2-27.2
		c-1-8-1.3-15.9-1.5-23.9c19.1-3.9,37.7-9.4,56-15.9c4.6-1.6,9.3-3.2,13.8-5.2c3.7-1.6,6.2-0.3,7.8,2.7c3.7,6.8,7.4,13.7,7,21.9
		c-0.3,4.7,0.3,9.3-0.5,14c-1.9,11.3-10.5,17.4-18.2,24.3c-13.5,12.4-30,17.9-47.6,20.9C646,309.4,642.1,311.2,637.9,311.3z"/>
	<path class="st3" d="M48.8,1222.7c8.8,0.6,17,4.2,25.8,5.4c14.6,1.9,29.1,3.9,43.9,0.1c10.7-2.7,22-2.7,32.9-5.2
		c15.7-3.6,30.6-9.9,45.7-15.1c9.6-3.3,10.5-11.2,2.6-17.7c-3.9-3.2-8.5-5.1-13-7c-9.6-3.9-19.6-6.9-29-11.2c-1.8-0.8-4-0.7-6.1-1
		c3.4-2.6,6.7-2.7,10.8-1c30,12.9,61.4,21.3,93.3,27.8c1.5,0.3,3,0.7,4.5,1.1c0.5,0.1,0.9,0.5,1.8,1.1c-4.4,4.8-9.9,8.1-14.7,12.2
		c-10.5,9.3-22.1,17.4-36,20.9c-10.3,2.6-20.7,5-31.1,6.7c-22.1,3.5-44.3,5.2-66.7,4.4c-9.1-0.3-18.4,0-27.2-1.8
		C72.2,1239.4,60.1,1231.6,48.8,1222.7z"/>
	<path class="st3" d="M741.2,642.9c13.3-0.9,26,1.8,37.4,8.6c10.7,6.4,15.9,17.1,16.8,29.3c0.5,6.6,1.4,13.3-0.7,20.1
		c-1.1,3.6-2.6,4.6-5.9,4.2c-3.9-0.4-7.8-0.7-11.6-1.2c-3.3-0.5-10.7-9.9-10.6-13.1c0.1-2.4,2-3.5,3.4-5c1.3-1.5,2-3.2,0.4-4.8
		c-1.3-1.3-2.9-0.9-4.4-0.2c-1.9,0.9-3.6,2.3-4.6,4.1c-1.6,2.9-3.4,3.8-6.8,3.2c-9.7-1.5-18.7,0.4-27.8,4.7
		c-19.5,9.2-39.3,17.7-58.7,27.1c-0.7,0.3-1.5,0.4-3,0.7c-0.6-8.8-1.3-17.5-1.9-26.1c3.7,3.1,6.9,2.8,11.1,0.1
		c12.2-7.9,24.9-15.1,39.3-18.5c4.3-1,8.2-3.1,12.1-5.3c4.9-2.8,7.8-6.4,7.5-12.5C732.8,651.6,736.5,646.9,741.2,642.9z"/>
	<path class="st3" d="M997.6,670.9c5.9,1.3,11.2,4.2,16.8,6.3c9.3,3.5,13.8,11.4,15.2,20.3c1.8,11.2,0.9,22.3-8.1,31.3
		c-4.4,4.4-7.7,9.8-11.4,14.9c-4.7,6.6-9.6,12.5-17.8,15.5c-6,2.1-11,6.7-16.8,9.8c-3.1,1.6-7,5.1-10,3c-3.2-2.3-0.4-6.6,0.4-10.1
		c1.8-8.7,3.5-17.3,5.3-26c1.5-7,1.6-7,8.6-6.9c13.9,0.2,23.3-9.9,22.8-24.9c-5,2.1-4.8,8.9-9.8,10.5c-6.6-5.8-11-12.9-12.2-21.9
		C979.1,681.8,986.4,672.3,997.6,670.9z"/>
	<path class="st3" d="M714.6,634.8c1.7-2.8,1.8-5.9,1.6-9c-0.8-16.6,1.5-33,1.5-49.6c0-4.4,2-8.5,1.5-13c-0.6-5.5-1-6.3-6.5-6.4
		c-7.8-0.1-15.3-2.2-22.9-3.4c-3-0.5-5.9-1.9-8.1-4.2c7.2,0.6,14.4,1.9,21.7,1.2c18.1-0.5,30.6-9,37-12.5c2.4-1.4,5-2.4,8.9-4.3
		c0,11.3,0.1,21.6,0,31.8c-0.3,21-3.6,41.9-1.9,63c0.3,3.9-1.2,5.1-4.9,4.9C733.2,632.7,723.9,633.9,714.6,634.8z"/>
	<path class="st1" d="M808.2,616c-3.3-7.7-0.5-14.9,2.6-21.5c7.1-15.1,12.1-30.8,16.8-46.6c3.7-12.4,5.5-25.3,12.1-36.7
		c2.5-4.3,2-4.6-3-6.1c-8.2-2.5-16.3-5-24.4-7.8c-4.4-1.5-7.6-4.4-8.6-9.2c7.2,1.1,14.3,2.5,21.5,3.2c11.3,1.2,22.5,2.8,33.9,2.9
		c7.6,0,14.9,1.4,22.8,3.4c-5.3,8.9-9.7,17.7-15.7,25.4c-9.8,12.6-18.2,25.9-25.9,39.8c-3.3,5.9-6.8,11.7-10.7,17.2
		C821.5,591.4,813,602.7,808.2,616z"/>
	<path class="st2" d="M741.2,642.9c-0.3,1-0.2,2.3-0.8,2.9c-4.5,4.9-6.3,10.6-5.4,17.2c0.4,2.6-0.8,4.2-2.9,5.8
		c-5.8,4.5-12.4,8.1-19.4,9.6c-12.8,2.8-23.5,9.5-34.5,15.9c-4,2.3-8.3,4.2-11.5,8.1c-3.1-2.4-0.9-6.2-3.5-8
		c-1.9-10.2-4.4-20.3-8.3-30c-1.5-3.8-0.6-5.6,3.1-7c8.8-3.4,17.8-5.9,27-7.4c14.3-2.4,28.7-4.9,43-7
		C732.3,642.4,736.8,642.9,741.2,642.9z"/>
	<path class="st6" d="M553.7,541.1c-3,0-4.8,2.1-6.3,4.1c-6.9,9.2-16.1,14-27.1,16.6c-14.1,3.3-27.9,8.1-42.6,7.3
		c-10.6-0.6-21-2.4-30.4-7.7c6.7,0.1,13.3,1.5,20.1,1.7c16.3,0.5,31.2-4,45.6-11c17.9-8.7,29.8-22.6,37.1-41.2
		c5.3-13.5,8.6-27.1,8.3-41.7c-0.2-9.9,2.5-19.5,3.3-29.4c0.3-3.2,4.2-6,8.2-5.8c11.1,0.5,22.2,0.8,33.3,2.5
		c2.7,0.4,3.3,2.1,3.3,4.4c0.1,7.3,0.1,14.6,0.2,21.9c-3.3-4.7-0.2-10.2-2-15.3c-8.1,0-16.4,0-24.8,0c-2,0-2.7,1.2-2.7,3
		c-0.3,13.8-3.6,27.1-6.2,40.5c-1.5,7.6-4.2,14.9-6.7,22.2c-7.2-1.5-7.7-0.9-8.5,6.3C555,526.9,557.6,534.3,553.7,541.1z"/>
	<path class="st4" d="M325.2,785.3c7.8-0.8,15.4,1.6,23.2,1.9c4.6,0.2,9.3,1,13.9,1c21.3,0.1,42.7,0.2,64,0.1
		c15.8,0,31.6,2.5,47.5,1.3c11.1-0.8,22.2-1.2,33-4.5c-0.4,2.9-2.1,5.3-3.3,7.9c-0.8,1.7-1.8,3.7-3.6,3.8
		c-7.7,0.5-13.6,6.4-21.2,7.1c-11.5,1-22.9,4.3-34.6,1.6c-5.4-1.2-10.8,1-16.2,1.3c-21.1,1.5-41.3-2.4-61.3-8.3
		C352.6,794.5,338.4,791.5,325.2,785.3z"/>
	<path class="st3" d="M949.4,1149.7c0-6.9-0.3-13.1,0.1-19.3c0.5-8.7-1-17.1-3.5-25.3c-2.9-9.6-8.4-17.8-16.4-24.1
		c-5.1-4-11-5.4-17.5-5.3c-3.9,0.1-4.7-1.5-2.6-4.7c3.3-5,8.6-7.6,14.1-9c11.7-3.1,25.4,3,30.8,11.7c6.6,10.5,10.9,21.8,14,33.6
		c1.5,5.8,0.2,12.1-1.2,17.6C964.7,1134.9,961,1144.9,949.4,1149.7z"/>
	<path class="st3" d="M433.2,597.5c8.7-0.9,17.5-1.7,26.2-2.7c3.7-0.4,7.2-0.6,10.5,1.6c2.9,1.9,4.6,4.3,3.9,7.8
		c-2.4,11.9-1.9,24.1-3.5,36.3c3.9,1.7,7.9,0,11.6,1c-1.3,1-2.9,1.2-4.4,1.2c-13.7,0.2-27.4,0.8-41.1-0.4c-6.3-0.5-6.3-0.6-6.2-7
		c0-2.1,0-4.2,0.4-6.2C432.5,618.6,433.4,608.1,433.2,597.5z"/>
	<path class="st8" d="M830.5,766.5c-3.8,2.4-8.1,1.4-12.2,1.3c-12.4-0.4-24.9-1.1-37-4.3c-2.6-0.7-4.2-1.5-4-4.5
		c0.5-8.3,0.5-16.6,1.2-24.9c0.7-7.2,1.9-7.9,8.8-7.6c4.4,0.2,8.8,0.6,13.2,0.8c3.3,1.9,7,1.5,10.6,1.6c11.1,0.3,17.5,7,18.2,18
		C829.8,753.4,826,760.2,830.5,766.5z"/>
	<path class="st7" d="M873.9,908.9c6.4-7.8,10.2-15.9,11.2-25.1c0.4-3.7,2.4-4.9,5.7-4.8c1,0,2.1,0,3.1,0c11.2-0.1,22.4,0,33.7-1.4
		c8.1-1,11.3,2.6,12.1,10.9c0.7,6.8-2.3,12.6-6,18c-1,1.4-2.3,1.9-3.9,2.1c-17.6,1.2-35.2,2.3-52.8,1.5
		C876.3,910,875.6,909.5,873.9,908.9z"/>
	<path class="st9" d="M841.2,789.9c0,2.6,0.1,5.2,0.1,7.7c-1.1,18.3-1.3,36.6-0.2,54.9c0.1,1.6-0.3,3.1-1.3,4.3c0,1.8-0.6,3.8,0,5.4
		c2,5.7,0.8,11.2-1.4,16.3c-5.7,13.2-11.7,19.9-23.9,16.2c-3,2.1-6,2.2-9,0c-7,0-14,0-21-0.2c-3-0.1-7.2,1.5-7.3-4.2
		c-0.1-5.1,1.2-6.3,6.8-7c10.2-1.3,20.4-3,30.6-4.2c9.9-1.2,13.7-8.7,16.8-16.3c1.6-4.1,2.1-9,2.1-13.7c-0.2-10.9-0.1-21.8,0.1-32.7
		c0.1-8.6,0-17.1-3.3-25.2C834,791.4,837.4,789.4,841.2,789.9z"/>
	<path class="st4" d="M153.3,417.8c6.1-0.1,6.5,0.1,5.6,4.5c-1.2,5.9-0.5,11.9-0.7,17.8c-0.1,4.9-0.2,9.9,0,14.8
		c0.2,4.2-0.8,5.3-5.7,4.7c-1.5-0.2-3.1-0.7-4.4-1.5c-8.4-5.5-18.5-8.1-26.4-14.7c-2.3-1.9-4.6-3.2-4.4-6.7c0.2-3.5,2.6-5,5.3-5.9
		c5.3-1.7,9.7-4.8,14.1-8.1C142.1,419,148.4,418.5,153.3,417.8z"/>
	<path class="st10" d="M997.6,670.9c-4,2.6-8.8,3.8-11.6,8.5c-4.6,7.8-4.9,18.4,0.9,25.2c2.6,3.1,4.4,6.3,5.8,9.9
		c-9.5,7.1-19.4,3.5-23.9-5.7c-2.6-5.2-4.7-10.2-4.7-16.1C964.1,672.2,978.7,662.6,997.6,670.9z"/>
	<path class="st11" d="M828.8,783.4c-6.5-0.1-12.8,2-19.3,1.8c-15.4-0.5-30.4-2.4-45.2-6.7c-1.7-0.5-3.5-0.9-5.3-1.3
		c-10.8-2.6-10.8-2.6-9.3-15.2c25.3,7.9,50.9,13.4,77.5,12.2C829.5,776.9,829.9,780,828.8,783.4z"/>
	<path class="st7" d="M391.3,641.2c-6.1,0.3-11.3-1.3-16.5-2.5c-6.8-1.6-9-4.9-8.8-12.8c0.2-6.2,4.6-11.7,10.4-12.7
		c8.3-1.4,19.2,3.8,23.2,11.1c1.7,3.2,1,13.4-1.4,15.7C396.1,642.1,393.3,640.9,391.3,641.2z"/>
	<path class="st12" d="M758.5,281.5c-2.2,0.6-4.7-0.3-6.7,1.4c-9.1,8-20.7,10.1-31.7,13.7c-9.5,3.2-19.2,5.7-28.8,8.6
		c0.8-2.5,3.2-3.2,5-4.7c6.3-5,12.5-10.1,18-16c4.3-4.6,9.7-6.5,16-6.2C739.7,278.8,749.2,279.5,758.5,281.5z"/>
	<path class="st11" d="M841.1,771.1c11.6-4.6,22.9-9.7,33.8-15.8c3.1-1.7,4.6-0.9,5.3,2.7c1.5,8.2-2.9,16.2-11.6,18.5
		c-9.5,2.5-19,5.1-28.9,5.3C838.9,778.2,840.9,774.8,841.1,771.1z"/>
	<path class="st6" d="M539.6,1183.9c3.3-3.9,2.8-7.6,0.5-11.9c-4.1-7.6-2.5-11.5,5.4-15.4c6.9-3.3,13.8-3.6,20.9-0.8
		c-0.8,1-1.3,2.1-1.4,3.4C563.2,1174.2,554.6,1182.5,539.6,1183.9z"/>
	<path class="st13" d="M576.3,414.3c-5.1-4.7-8.1-10.6-14-14c-3.4-1.9-2.5-6,1.5-6.8c9.9-2.1,20.1-2.4,30.1-0.6
		c5.7,1,7.6,6.2,5.2,11.3c-0.7,1.5-1.3,3-3.3,2.2c-2.5-1-4,0.3-5.1,2.2c-1,1.8-2.3,1.4-3.9,0.9C580.3,407.8,580.3,407.9,576.3,414.3
		z"/>
	<path class="st14" d="M852,715.4c0,10.5,0,21.1,0,31.6c0,0.8-0.1,1.6-0.1,2.3c-0.2,11.1-0.2,11.1-11.9,14.7
		c-0.8-4.7-0.4-9.2,0.2-13.7c0.6-4.7,0.7-9.2,0-13.9C838.4,724.8,841.4,719.8,852,715.4z"/>
	<path class="st15" d="M872.4,706.5c-3,15.2-5.2,29.2-4.3,43.5c0.2,3.1-5.1,7.1-8.1,6.7c-1.3-0.2-1.6-1.2-2-2.1
		c-1.2-2.5-0.8-5.1-0.8-7.7c0.2-9.1,1.5-18.1,0.9-27.2c-0.2-3.9,1.4-6.3,4.8-8C865.7,710.5,868.3,708.8,872.4,706.5z"/>
	<path class="st16" d="M830.5,766.5c-4.1,0.1-5.5-2.2-4.8-5.9c0.9-4.6,1-9.2,1.5-13.8c1.1-8.6-7.7-16.5-15.9-16.4
		c-3.9,0.1-7.9,0.4-10.7-3.1c11.3-0.5,22.7,0.2,34.8-2c-0.1,13.1,1.1,25.7-0.3,38.2C834.8,766.4,832.6,766.2,830.5,766.5z"/>
	<path class="st17" d="M384.9,827.2c-10.7-2.6-20-8-28.8-14.4c-3.2-2.3-6.3-4.2-9.9-5.6c-3.4-1.3-6.7-2.9-8.3-6.5
		c13,3.4,26.1,6.9,39.2,10.3c2.8,0.7,4.8,1.9,4.4,5.3C380.9,820.4,382.9,823.8,384.9,827.2z"/>
	<path class="st18" d="M434.8,842.9c-6.1-2.1-12.2-4.1-18.2-6.3c-2.3-0.9-5.1-0.9-6.8-3.2c3.5-3.9,7-7.7,6.5-13.5
		c-0.2-3,1.7-4.1,4.2-4.6c2.4-0.4,4.7-0.2,6.1,2.2c0.8,1.3,1.4,2.8,1.8,4.3c1,4.6,2.3,9,5.1,12.9C435.2,837.1,435,840,434.8,842.9z"
		/>
	<path class="st19" d="M763.5,758c-4.1,1.1-6.6-0.6-9.3-1.3c-2.2-0.6-3.4-2.3-3.5-4.6c-0.1-7.5-0.5-15,2.3-22.3
		c1.3-3.3,6.3-5.3,9.3-3.5c1,0.6,1.2,1.6,1.2,2.6C763.4,738.7,763.5,748.5,763.5,758z"/>
	<path class="st20" d="M567.8,416.9c0.2,0.2,0.4,0.3,0.6,0.5c2.6,3.1,6.1,3.3,9.8,3.5c5.6,0.3,2.4-5.7,6-7.1c2.8,0.4,6,3.1,9.7,0.8
		c1.1-0.7,2.4,0,3.3,1.2c1,1.5,2.6,2.6,3.5,4.1c1.3,2.3,4.1,4.7,2.4,7.4c-1.8,2.9-5.1,1.4-7.8,0.7c-6.4-1.7-12.9-0.6-19.3-0.8
		c-6.1-0.2-6.1-0.1-8.3-6.4C566.7,419.5,566.7,418.2,567.8,416.9z"/>
	<path class="st21" d="M815.2,705.5c-1.1,2.6-11.5,6.2-13.6,6.8c-7.6,2.1-13.4,7.8-21,9.8c-2.5,0.7-4.1,3-5,5.6
		c-1.7,5-2.5,10-2.7,15.2c-0.1,4.9-0.2,9.9-0.3,14.8c0,1.4,0.5,3.5-1.9,3.4c-1.6-0.1-1.7-1.7-1.7-3c0-10.1,0.2-20.2,0.2-30.4
		c0-4.4,1.9-7.2,6.1-8.9c7.7-3,15.4-6.2,23-9.5C801.2,708.2,812,704.6,815.2,705.5z"/>
	<path class="st22" d="M955.6,693c-5.9-2.6-12.3-3.2-18.4-4.7c-2.8-0.7-5.5-1.6-7.9-3c-2.7-1.6-2.4-4.7,0.6-5.8
		c1.6-0.6,3.5-0.6,5.3-0.7c7.8,0,15.5,0,23.3,0.1C957.6,683.5,956.6,688.2,955.6,693z"/>
	<path class="st22" d="M958.8,711.3c-6.2-0.1-12.1,2.6-18.3,1.9c-1.5-0.2-3.1,0-4.6-0.2c-2-0.2-3.4-1.2-3.7-3.3
		c-0.3-1.7,0.6-2.9,2-3.9c6.4-4.5,13.5-7.3,21.2-8.4C955.5,702.3,955.2,707.3,958.8,711.3z"/>
	<path class="st23" d="M870.9,1116.5c3,1.6,4.3,1.3,4.8-2.7c0.7-5.5,3.8-7.4,9.1-6.7c3.8,0.5,6,2.6,6.3,6.5c0.1,2,0,4.1,0,6.1
		c-2.6-2-5.2-4.1-7.8-6.1c-0.2-0.1-0.5,0-1-0.1c-2.3,2.3-1.2,5.7-2.5,8.4c-1.2,2.5-0.8,5.7-3.7,7.7
		C871.6,1126.5,870.1,1122,870.9,1116.5z"/>
	<path class="st24" d="M842.9,715.8c-0.5,1.5-2.4,2.4-4.5,2.6c-14.1,1.6-28.2,2-42.5,1.4c3.3-2.1,6.6-4,10.5-4
		C818.7,715.8,830.9,715.8,842.9,715.8z"/>
	<path class="st25" d="M841.1,771.1c3.3,4.1,0,7.3-1.5,10.8c-3.4,2-7.1,1.8-10.8,1.5c-2-2.8-1.7-6-1.6-9.2
		C831.6,772,836.6,772.7,841.1,771.1z"/>
	<path class="st26" d="M550.5,1079c6.9,11.8,18.8,18.9,28,28.5c-1.5,0-3.1-0.2-4.6,0c-4.4,0.7-7.2-1.5-9.4-5
		c-3.7-5.6-7.5-11-11.4-16.5C551.5,1083.9,550.2,1081.8,550.5,1079z"/>
	<path class="st27" d="M866,705.5c-4.4,3.6-8.1,4.6-12.8,4.7c-9.3,0.2-18.7,0.3-28,0.2c-1.8,0-3.6,0.4-5.4-0.7
		c1.2-2.7,3.7-2.6,5.9-2.7c6.2-0.3,12.4-0.6,18.7-0.5C851.2,706.8,858.1,706.2,866,705.5z"/>
	<path class="st28" d="M773.8,715.5c-4,2.3-7.7,5.3-12.5,5.3c-1.9,0-4.5,1-5.6-1.3c-0.7-1.5-0.6-3.7,0.6-5.2c1.3-1.7,3.3-1.2,5-0.8
		C765.4,714.7,769.5,714.6,773.8,715.5z"/>
	<path class="st29" d="M758.1,707.2c10.9-0.9,20.4,0.4,30.1,1.4C782.8,712.5,767.2,712,758.1,707.2z"/>
	<path class="st5" d="M567.8,416.9c0.5,1.3,0.2,2.6-0.1,3.9c-2.3-4.2-4.5-8.4-6-14.2C567.5,407.8,567.3,412.3,567.8,416.9z"/>
	<path class="st5" d="M604.5,404c1.2,2.6,2.2,4.8,2.1,7.4c-0.1,1.7-1.2,2.7-2.9,3.1c-1,0.2-2,0-2.8-0.8c-1.2-1.2-0.6-2.3,0.1-3.4
		C602.1,408.3,603.2,406.3,604.5,404z"/>
	<path class="st18" d="M408.3,833.4c-3.3,0.3-6.6,1-9.6-1.2C402,832,405.3,831.5,408.3,833.4z"/>
	<path class="st30" d="M221.8,725.9c-0.1,1.3-1.2,1.5-2.2,1.6c-3.7,0.3-9.6-4.6-9.8-8.2c-0.1-1.5,0.6-2.5,2.2-2.4
		c1.8,0.1,9.2,6.4,9.7,8.2C221.7,725.3,221.7,725.6,221.8,725.9z"/>
	<path class="st31" d="M195.1,697.3c2.2,0.2,8,6.4,8,8.7c0,1.5-1,2.3-2.5,2.3c-2.8-0.1-8-5.7-8-8.5
		C192.7,698.3,193.5,697.4,195.1,697.3z"/>
	<path class="st32" d="M186,682.9c-0.3,0.5-0.5,1.4-1,1.7c-0.5,0.3-1.6,0.3-2.1,0c-1.9-1.4-3.1-3.4-2.8-5.9c0.2-1.7,1.5-1.9,2.8-1.1
		C184.6,678.8,185.4,680.6,186,682.9z"/>
	<path class="st33" d="M177,662.3c-0.2,1.5,0.1,3.1-1.6,3.3c-2.3,0.2-3-1.6-3.2-3.5c-0.1-1.6,0.2-3.4,2.1-3.5
		C176.9,658.5,176.6,660.9,177,662.3z"/>
	<path class="st34" d="M403.4,942.7c1.3,0,2.6-0.1,3.9,0c10.5,0.9,16.5,6,17.9,15.1c1.5,9.7-4.3,21.5-12.1,25
		c-2.3,1-4.6,1.1-6.9,0.8c-8.4-1.1-14.6-6.3-20.4-11.9c-1.4-1.4-1.2-3.3-1.4-5.1c-0.5-5.3,1.1-10.4,2.3-15.2
		c1.2-4.9,6.1-7.5,11.2-8.5C399.7,942.4,401.6,942.7,403.4,942.7C403.4,942.7,403.4,942.7,403.4,942.7z"/>
	<path class="st34" d="M415.1,1052.3c1.4,0.1,4.5-0.1,7.5,1.1c9.4,3.7,13.8,13.3,10,23.7c-5.2,14.1-15.9,19.2-29.6,11.1
		c-3.4-2-6.4-4.4-9.2-7.2c-3.2-3.3-5.1-13.9-2.3-17.4c4.4-5.4,9.4-10.5,17.1-11.2C410.3,1052.2,411.9,1052.3,415.1,1052.3z"/>
	<path class="st35" d="M383.2,139.8c1.1,17-4.9,31.5-16.4,43.9c-0.7,0.8-1.4,1.5-2.2,2.2c-2.3,2.2-4.9,3.4-7.5,0.8
		c-2.3-2.3-1.3-4.8,0.5-7c1.5-1.8,3.2-3.4,4.7-5.2c12.1-14,12.9-30.7,10.9-47.9c-1.9-15.5-9.5-28.4-18.5-40.7
		c-1.3-1.8-3.3-3.2-5.1-4.7c-1.6-1.3-3.3-2.7-3.9-4.8c-0.7-2.3-1.1-4.8,1-6.5c1.9-1.5,4.1-0.7,5.8,0.6c5.4,4.2,11.9,7.5,14,15
		c0.6,2.2,2.3,4.1,3.5,6.1C378.9,106.4,384.2,122.2,383.2,139.8z"/>
	<path class="st34" d="M854.1,929.1c-1.4,2.2-4,3.1-6.2,4.9c2.6,3.3,5,6.2,7.4,9.1c-0.1,1.7-0.4,3.4-2.6,2.4
		c-3.6-1.6-6.8-3.8-9.7-6.5c-2.2-2.1-4.3-2.3-7-1.1c-6.1,2.8-12.7,4.6-18.2,8.7c-1,0.8-2.3,1.3-3.4,1.8c-1.4,0.6-2.7,0.3-3.5-0.9
		c-0.9-1.3-0.2-2.3,1-3.2c3.2-2.2,6.3-4.6,9.5-6.8c1.3-0.9,2.8-1.5,4-2.4c7.7-5.7,6.4-4.7,1.9-12c-0.4-0.6-1.1-1.1-1.6-1.7
		c-1.3-1.7-4.5-3.3-2.2-5.6c1.9-2,3.5,1.1,5.2,2c0.7,0.3,1.4,0.8,1.8,1.4c4.5,6,9.6,8.3,16.3,3.1c1.3-1.1,2.9-1,4,0.7
		C852,925,854.1,926.4,854.1,929.1z"/>
	<path class="st36" d="M897.5,794.4c0.8,3.7-1.3,5.8-4.5,5.6c-4.3-0.3-4.4,2.1-4.8,5.1c-0.5,4.2,1.1,8.8-1.7,12.7
		c-6.3-2-6.3-2-6.5-8.3c-0.1-2,0.5-4.2-0.9-6.5c-7.5,0.6-15,3-22.7,2.5c-2.4-0.2-6.4,1.4-6.7-1.7c-0.3-4.1,4.1-3.1,6.6-2.9
		c7.5,0.5,14-3.3,21.1-4.4C884.2,795.6,890.8,794,897.5,794.4z"/>
	<path class="st37" d="M839.8,856.9c-2.9-17.4-1.1-35-1.4-52.5c0-2.6,0.3-5.2,2.9-6.7c2.3,1.3,3.1,3.3,3,5.8
		c-0.3,16.6,0.7,33.2-1.5,49.7C842.6,855.1,842.2,856.8,839.8,856.9z"/>
	<path class="st38" d="M805.5,894.8c3,0,6,0,9,0c0.5,0.9,1.3,2,0.2,2.7c-1.3,0.8-2.8,1.4-4.3,1.7c-10.4,1.9-20.8,3.5-31.5,2.2
		c-5.4-0.6-10.9-0.4-16.3-0.6c-2.2-0.1-4.7,0.4-6.3-2.3c4-1.8,8-2.3,12.1-2.3c9.3,0,18.6,0.1,28,0
		C799.5,896.1,802.7,896.7,805.5,894.8z"/>
	<path class="st39" d="M869.9,812.4c-5.1,3-10.3,2.4-15.4,2.2c-1.6-0.1-3.2-0.7-3.1-2.7c0.1-1.7,1.6-1.8,2.9-1.8
		C859.4,810.1,864.6,809.3,869.9,812.4z"/>
	<path class="st40" d="M553.7,541.1c-0.5-7.7-0.8-15.3-0.2-23c0.2-1.8,0.3-3.6,0.9-5.2c0.7-1.9,1.6-4,3.8-4.5c2.7-0.6,3.2,2,4.3,3.5
		c0.5,0.6,1.1,1.1,1.6,1.6c2.8,3.9,7.1,4.5,11.2,4.3c14-0.6,27.5-2.7,36.5-15.5c1.9-2.7,3.6-2.3,5.2,0.7c0.1,0.2,0.3,0.5,0.3,0.7
		c4.2,41.5-0.2,81.4-40.1,68.2c-9.7-3.2-14.7-8.9-19.3-16.5c-1.5-2.4-2.1-5.3-3.1-8C554,545.9,553.9,541.5,553.7,541.1z"/>
	<path class="st41" d="M603.5,811.7c1.5,0.2,4.1-0.4,6.5,1c4.1,2.5,5.9,7.8,4.4,13c-1.5,5-4.2,6.6-10,6.5c-3.5-0.1-6.6-1.5-9.5-3.2
		c-5-2.9-6.7-6.8-4.9-11.6c1.5-4.3,5.8-6.7,11-6.1C601.4,811.5,601.9,811.5,603.5,811.7z"/>
	<path class="st42" d="M536.5,821.8c0.1,6.3-3.3,10.2-9,10.3c-6.8,0.2-13-5.4-13.1-11.7c0-6.2,4.5-10,12.2-10.1
		C532.3,810.1,536.5,814.9,536.5,821.8z"/>
	<path class="st35" d="M967.8,646c3.4,0,6.7-0.3,10.1,0.1c2.8,0.3,3.6,2.9,2,5.2c-1.5,2.3-3.8,3.6-6.5,3.8c-8.5,0.8-17,0.9-25.5,0.4
		c-1.9-0.1-3.8-0.7-4.2-2.7c-0.6-2.7,1.6-3.5,3.6-4.2C953.8,646.1,960.7,645.7,967.8,646z"/>
	<path class="st43" d="M923.1,845.8c5.5-0.2,9.4-0.2,12.9,1.9c1.4,0.8,2.5,2,2.3,3.7c-0.2,1.9-1.7,2.2-3.3,2.7
		c-6.5,1.9-13.3,1.3-20,2.5c-1.8,0.3-3.7-0.4-4.5-2.3c-0.7-1.6,0.5-3,1.4-4.2C915.2,845.5,920,845.8,923.1,845.8z"/>
	<path class="st44" d="M935.5,764.8c-2.8,0-5.7,0.1-8.5,0c-2-0.1-3.5-1.2-3.8-3.2c-0.3-2.3,0.9-4,3.1-4.7c6-1.8,12.1-2.2,18.3-1.2
		c2.1,0.3,4.1,1.4,4.2,3.9c0.2,2.8-1.9,4.1-4.1,4.9C941.7,765.5,938.6,764.8,935.5,764.8z"/>
	<path class="st45" d="M909.2,949.3c2.6,0,5.1-0.1,7.7,0c2.7,0.2,4.3,1.6,4.3,4.4c0,2.7-1.2,4.6-3.9,5c-3.1,0.5-6,1.5-9.2,1.2
		c-4.1-0.4-8.1-1.4-12.3-1.1c-1.6,0.1-3.2-0.5-3.5-2.3c-0.3-1.8,1-2.7,2.5-3.5C899.2,950.4,903.6,947.7,909.2,949.3z"/>
	<path class="st44" d="M905.9,1049.2c-7.3-0.7-13-1.4-18.7-1.1c-2.3,0.1-4.4-0.5-4.6-3.1c-0.1-2.7,0.7-5.5,3.8-6
		c7-1.1,13.9,0.1,20.7,1.8c1.1,0.3,2.1,1.5,2.9,2.5c2.2,2.9,1,5.5-2.7,5.9C906.4,1049.3,905.3,1049.2,905.9,1049.2z"/>
	<path class="st46" d="M419.1,962c-0.1,8-5.9,15.3-12.4,15.4c-5.5,0-17.4-8.4-17.1-12.5c0.7-9.6,6.3-16.3,13.7-15.7
		C412.1,949.8,419.2,955.1,419.1,962z"/>
	<path class="st7" d="M413,1060.2c13.1,0,16.3,3,13.7,14.3c-2.4,10.3-7.7,16.5-19.4,9.6c-3.4-2-6.8-3.8-9.4-6.8
		c-3.2-3.8-3.3-7.5,0.3-11C402.7,1062,407.6,1058.7,413,1060.2z"/>
	<path class="st47" d="M558.6,519.6c8.4,6.2,19.7,3.2,29.5,3.4c10.3,0.3,18.1-4.4,25.7-11.1c1.2,14.7,1.3,28.6-4.2,41.8
		c-0.9,2.1-2.5,3.9-4.2,5.6c-7.2,7.2-25.6,7.8-34,2c-3.6-2.5-5.6-5.1-7.7-9.3C558.6,542.4,558.1,531,558.6,519.6z"/>
</g>
</svg>
